<?xml version="1.0" encoding="UTF-8"?>
<svg width="180" height="180" viewBox="0 0 48 48" fill="none" xmlns="http://www.w3.org/2000/svg">
  <rect width="48" height="48" fill="white"/>
  <path d="M20.6772 14.2921L20.3528 14.1249C19.1472 13.5036 17.6737 13.9919 17.0615 15.2154L9.8259 29.6771C9.21373 30.9006 9.6948 32.3961 10.9004 33.0174L11.2248 33.1845C12.4304 33.8058 13.904 33.3176 14.5161 32.0941L21.7517 17.6323C22.3639 16.4088 21.8828 14.9133 20.6772 14.2921Z" fill="#0A0E67"/>
  <path d="M29.3071 14.2926L28.9827 14.1254C27.7771 13.5041 26.3035 13.9923 25.6914 15.2159L18.4558 29.6776C17.8436 30.9011 18.3247 32.3966 19.5303 33.0179L19.8547 33.185C21.0603 33.8063 22.5339 33.3181 23.146 32.0945L30.3816 17.6328C30.9938 16.4093 30.5127 14.9138 29.3071 14.2926Z" fill="#0A0E67"/>
  <path d="M7.96891 27.1709L4.38944 19.7074C4.1791 19.269 4.04646 18.794 4.01235 18.3074C3.93845 17.2863 4.15257 15.692 5.86557 14.5824C7.0783 13.7978 8.68139 13.6459 10.1499 14.5709C10.9591 15.0805 12.5129 16.5363 11.8724 19.0401C11.7777 19.4113 11.6318 19.767 11.4631 20.1093L7.96701 27.169L7.96891 27.1709Z" fill="#0A0E67"/>
  <path d="M42.3692 28.421H34.314H27.7538L25.082 33.7595H42.3673C43.8207 33.7595 44.9975 32.5633 44.9975 31.0903C44.9975 29.6153 43.8188 28.421 42.3673 28.421H42.3692Z" fill="#4148E6"/>
  <path d="M38.6514 21.1306H31.4091L28.7373 26.4691H38.6514C40.1048 26.4691 41.2816 25.2729 41.2816 23.7998C41.2816 22.3248 40.1029 21.1306 38.6514 21.1306Z" fill="#4148E6"/>
  <path d="M42.3694 13.7614H35.0569L32.4287 19.0152V19.0998H34.5131H42.3675C43.8209 19.0998 44.9976 17.9037 44.9976 16.4306C44.9976 14.9575 43.819 13.7614 42.3675 13.7614H42.3694Z" fill="#4148E6"/>
</svg> 